<?xml version="1.0" encoding="utf-8"?>
<!-- Generator: Adobe Illustrator 24.1.0, SVG Export Plug-In . SVG Version: 6.00 Build 0)  -->
<svg version="1.1" id="Capa_1" xmlns="http://www.w3.org/2000/svg" xmlns:xlink="http://www.w3.org/1999/xlink" x="0px" y="0px"
	 viewBox="0 0 293 153" style="enable-background:new 0 0 293 153;" xml:space="preserve">
<style type="text/css">
	.st0{fill:#F0E8DA;}
</style>
<g>
	<path class="st0" d="M13.7,47.6v-29h3.4l19.2,23.8h-1.8V18.5h4.1v29h-3.4L16.1,23.7h1.8v23.8H13.7z"/>
	<path class="st0" d="M59.7,47.9c-2.2,0-4.3-0.4-6.2-1.1C51.6,46,50,45,48.6,43.7c-1.4-1.3-2.5-2.9-3.2-4.7
		c-0.8-1.8-1.2-3.8-1.2-5.9c0-2.1,0.4-4.1,1.2-5.9c0.8-1.8,1.9-3.4,3.2-4.7c1.4-1.3,3-2.4,4.9-3.1c1.9-0.7,3.9-1.1,6.2-1.1
		c2.2,0,4.3,0.4,6.1,1.1c1.9,0.7,3.5,1.8,4.9,3.1c1.4,1.3,2.5,2.9,3.2,4.7s1.1,3.8,1.1,5.9s-0.4,4.1-1.1,5.9
		c-0.8,1.8-1.8,3.4-3.2,4.7c-1.4,1.3-3,2.4-4.9,3.1C63.9,47.5,61.9,47.9,59.7,47.9z M59.7,44.2c1.6,0,3.1-0.3,4.5-0.8
		c1.4-0.6,2.6-1.3,3.6-2.3c1-1,1.8-2.2,2.4-3.5c0.6-1.4,0.8-2.8,0.8-4.4c0-1.6-0.3-3.1-0.8-4.4c-0.6-1.4-1.4-2.5-2.4-3.5
		c-1-1-2.2-1.8-3.6-2.3c-1.4-0.6-2.9-0.8-4.5-0.8c-1.6,0-3.1,0.3-4.5,0.8c-1.4,0.6-2.6,1.3-3.6,2.3c-1,1-1.8,2.2-2.4,3.5
		c-0.6,1.4-0.8,2.8-0.8,4.4c0,1.6,0.3,3.1,0.8,4.4c0.6,1.4,1.4,2.5,2.4,3.5c1,1,2.2,1.8,3.6,2.3C56.6,43.9,58.1,44.2,59.7,44.2z"/>
	<path class="st0" d="M88.1,47.6l-12.8-29h4.5l11.7,26.8h-2.6l11.8-26.8h4.1l-12.7,29H88.1z"/>
	<path class="st0" d="M112.8,44h16.9v3.6h-21.1v-29h20.5v3.6h-16.3V44z M112.4,31.1h14.9v3.5h-14.9V31.1z"/>
	<path class="st0" d="M134.9,47.6v-29h12.2c3.1,0,5.8,0.6,8.2,1.8c2.4,1.2,4.2,2.9,5.5,5.1c1.3,2.2,2,4.7,2,7.6c0,2.9-0.7,5.4-2,7.6
		c-1.3,2.2-3.2,3.9-5.5,5.1c-2.4,1.2-5.1,1.8-8.2,1.8H134.9z M139.1,44h7.8c2.4,0,4.5-0.5,6.2-1.4c1.8-0.9,3.1-2.2,4.1-3.8
		c1-1.6,1.5-3.5,1.5-5.7c0-2.2-0.5-4.1-1.5-5.7c-1-1.6-2.3-2.9-4.1-3.8s-3.8-1.4-6.2-1.4h-7.8V44z"/>
	<path class="st0" d="M163,47.6l13.1-29h4.1l13.2,29h-4.4l-11.7-26.7h1.7l-11.7,26.7H163z M168.6,40.3l1.1-3.3h16.3l1.2,3.3H168.6z"
		/>
	<path class="st0" d="M197.2,47.6v-29h12.2c3.1,0,5.8,0.6,8.2,1.8c2.4,1.2,4.2,2.9,5.5,5.1c1.3,2.2,2,4.7,2,7.6c0,2.9-0.7,5.4-2,7.6
		c-1.3,2.2-3.2,3.9-5.5,5.1c-2.4,1.2-5.1,1.8-8.2,1.8H197.2z M201.4,44h7.8c2.4,0,4.5-0.5,6.2-1.4c1.8-0.9,3.1-2.2,4.1-3.8
		c1-1.6,1.5-3.5,1.5-5.7c0-2.2-0.5-4.1-1.5-5.7c-1-1.6-2.3-2.9-4.1-3.8s-3.8-1.4-6.2-1.4h-7.8V44z"/>
	<path class="st0" d="M234.8,44h16.9v3.6h-21.1v-29h20.5v3.6h-16.3V44z M234.5,31.1h14.9v3.5h-14.9V31.1z"/>
	<path class="st0" d="M266.5,47.9c-2.2,0-4.3-0.3-6.3-1c-2-0.7-3.6-1.6-4.8-2.6l1.5-3.2c1.1,1,2.5,1.8,4.2,2.4c1.7,0.6,3.5,1,5.3,1
		c1.7,0,3.1-0.2,4.1-0.6c1-0.4,1.8-0.9,2.3-1.6c0.5-0.7,0.7-1.4,0.7-2.3c0-1-0.3-1.8-1-2.4c-0.6-0.6-1.5-1.1-2.5-1.5
		c-1-0.4-2.2-0.7-3.4-1c-1.2-0.3-2.5-0.6-3.8-1c-1.3-0.4-2.4-0.9-3.4-1.4c-1-0.6-1.9-1.4-2.5-2.3c-0.6-1-1-2.2-1-3.8
		c0-1.5,0.4-2.9,1.2-4.1c0.8-1.3,2-2.3,3.6-3c1.6-0.8,3.7-1.1,6.3-1.1c1.7,0,3.4,0.2,5,0.7s3.1,1.1,4.3,1.9l-1.4,3.3
		c-1.2-0.8-2.6-1.4-3.9-1.8c-1.4-0.4-2.7-0.6-4-0.6c-1.6,0-3,0.2-4,0.6c-1.1,0.4-1.8,1-2.3,1.7c-0.5,0.7-0.7,1.5-0.7,2.3
		c0,1,0.3,1.8,1,2.4c0.6,0.6,1.5,1.1,2.5,1.5c1,0.4,2.2,0.7,3.4,1c1.2,0.3,2.5,0.6,3.8,1c1.3,0.4,2.4,0.8,3.4,1.4
		c1,0.6,1.9,1.4,2.5,2.3c0.6,1,1,2.2,1,3.7c0,1.5-0.4,2.8-1.2,4.1c-0.8,1.3-2,2.3-3.7,3C271.1,47.5,269,47.9,266.5,47.9z"/>
	<path class="st0" d="M20.3,89.9V61.6H9.5v-0.8h22.4v0.8H21.1v28.2H20.3z"/>
	<path class="st0" d="M46.6,90c-2.1,0-4.1-0.4-5.9-1.1c-1.8-0.7-3.4-1.8-4.7-3.1c-1.3-1.3-2.4-2.9-3.1-4.6c-0.7-1.8-1.1-3.7-1.1-5.8
		c0-2.1,0.4-4,1.1-5.8c0.7-1.8,1.8-3.3,3.1-4.6c1.3-1.3,2.9-2.4,4.7-3.1c1.8-0.7,3.8-1.1,5.9-1.1s4.1,0.4,5.9,1.1
		c1.8,0.7,3.4,1.8,4.7,3.1c1.3,1.3,2.4,2.9,3.1,4.6c0.7,1.8,1.1,3.7,1.1,5.8c0,2.1-0.4,4-1.1,5.8c-0.7,1.8-1.8,3.3-3.1,4.6
		c-1.3,1.3-2.9,2.4-4.7,3.1C50.7,89.6,48.8,90,46.6,90z M46.6,89.2c2,0,3.8-0.3,5.6-1c1.7-0.7,3.2-1.7,4.5-2.9
		c1.3-1.3,2.3-2.7,3-4.4s1.1-3.5,1.1-5.5s-0.4-3.8-1.1-5.5c-0.7-1.7-1.7-3.1-3-4.4c-1.3-1.3-2.8-2.2-4.5-2.9c-1.7-0.7-3.6-1-5.6-1
		c-2,0-3.8,0.3-5.6,1c-1.7,0.7-3.2,1.7-4.5,2.9c-1.3,1.3-2.3,2.7-3,4.4c-0.7,1.7-1.1,3.5-1.1,5.5s0.4,3.8,1.1,5.5s1.7,3.1,3,4.4
		c1.3,1.3,2.8,2.2,4.5,2.9C42.8,88.9,44.6,89.2,46.6,89.2z"/>
	<path class="st0" d="M68.4,89.9v-29h11c3.1,0,5.8,0.6,8,1.9c2.3,1.3,4.1,3,5.4,5.2c1.3,2.2,1.9,4.7,1.9,7.5c0,2.8-0.6,5.3-1.9,7.5
		c-1.3,2.2-3.1,3.9-5.4,5.2c-2.3,1.3-5,1.9-8,1.9H68.4z M69.2,89.1h10.1c3,0,5.5-0.6,7.7-1.8c2.2-1.2,3.9-2.8,5.1-4.9
		c1.2-2.1,1.8-4.4,1.8-7.1s-0.6-5-1.8-7.1c-1.2-2.1-2.9-3.7-5.1-4.9c-2.2-1.2-4.8-1.8-7.7-1.8H69.2V89.1z"/>
	<path class="st0" d="M95.7,89.9l13.5-29h0.8l13.5,29h-1l-13.1-28.4h0.4L96.6,89.9H95.7z M100.1,81.1l0.4-0.8h18l0.4,0.8H100.1z"/>
	<path class="st0" d="M136.3,90c-2.1,0-4.1-0.4-6-1.2c-1.9-0.8-3.3-1.8-4.3-2.9l0.6-0.5c0.9,1.1,2.2,2,4,2.7
		c1.7,0.7,3.6,1.1,5.6,1.1c2.1,0,3.8-0.3,5.2-0.9c1.3-0.6,2.3-1.4,3-2.3c0.6-1,1-2.1,1-3.3c0-1.4-0.3-2.5-1-3.3
		c-0.7-0.8-1.5-1.5-2.7-2c-1.1-0.5-2.3-0.9-3.6-1.2c-1.3-0.3-2.6-0.6-3.9-1c-1.3-0.3-2.5-0.8-3.6-1.3c-1.1-0.5-2-1.3-2.7-2.2
		c-0.7-0.9-1-2.2-1-3.7c0-1.3,0.3-2.5,1-3.6c0.7-1.1,1.7-2,3.2-2.7c1.4-0.7,3.3-1,5.5-1c1.5,0,3.1,0.2,4.6,0.7
		c1.5,0.5,2.8,1.1,3.8,1.9l-0.5,0.7c-1.2-0.9-2.4-1.5-3.9-1.9c-1.4-0.4-2.8-0.6-4.1-0.6c-2,0-3.7,0.3-5,0.9
		c-1.3,0.6-2.3,1.4-2.9,2.4c-0.6,1-1,2.1-1,3.3c0,1.4,0.3,2.5,1,3.4c0.7,0.8,1.5,1.5,2.7,2c1.1,0.5,2.3,0.9,3.6,1.2
		c1.3,0.3,2.6,0.6,3.9,1c1.3,0.3,2.5,0.8,3.6,1.3c1.1,0.5,2,1.3,2.7,2.2c0.7,0.9,1,2.1,1,3.6c0,1.3-0.3,2.5-1,3.6
		c-0.7,1.1-1.8,2-3.2,2.7C140.5,89.7,138.6,90,136.3,90z"/>
	<path class="st0" d="M164.5,89.9v-29h0.8v28.2h17.3v0.8H164.5z"/>
	<path class="st0" d="M185.1,89.9l13.5-29h0.8l13.5,29h-1l-13.1-28.4h0.4l-13.1,28.4H185.1z M189.6,81.1l0.4-0.8h18l0.4,0.8H189.6z"
		/>
	<path class="st0" d="M225.7,90c-2.1,0-4.1-0.4-6-1.2c-1.9-0.8-3.3-1.8-4.3-2.9l0.6-0.5c0.9,1.1,2.2,2,4,2.7
		c1.7,0.7,3.6,1.1,5.6,1.1c2.1,0,3.8-0.3,5.2-0.9c1.3-0.6,2.3-1.4,3-2.3c0.6-1,1-2.1,1-3.3c0-1.4-0.3-2.5-1-3.3
		c-0.7-0.8-1.5-1.5-2.7-2c-1.1-0.5-2.3-0.9-3.6-1.2c-1.3-0.3-2.6-0.6-3.9-1c-1.3-0.3-2.5-0.8-3.6-1.3c-1.1-0.5-2-1.3-2.7-2.2
		c-0.7-0.9-1-2.2-1-3.7c0-1.3,0.3-2.5,1-3.6c0.7-1.1,1.7-2,3.2-2.7c1.4-0.7,3.3-1,5.5-1c1.5,0,3.1,0.2,4.6,0.7
		c1.5,0.5,2.8,1.1,3.8,1.9L234,64c-1.2-0.9-2.4-1.5-3.9-1.9c-1.4-0.4-2.8-0.6-4.1-0.6c-2,0-3.7,0.3-5,0.9c-1.3,0.6-2.3,1.4-2.9,2.4
		c-0.6,1-1,2.1-1,3.3c0,1.4,0.3,2.5,1,3.4c0.7,0.8,1.5,1.5,2.7,2c1.1,0.5,2.3,0.9,3.6,1.2c1.3,0.3,2.6,0.6,3.9,1
		c1.3,0.3,2.5,0.8,3.6,1.3c1.1,0.5,2,1.3,2.7,2.2c0.7,0.9,1,2.1,1,3.6c0,1.3-0.3,2.5-1,3.6c-0.7,1.1-1.8,2-3.2,2.7
		C229.9,89.7,228,90,225.7,90z"/>
	<path class="st0" d="M22,132.3c-2.1,0-4.1-0.4-6-1.2c-1.9-0.8-3.3-1.8-4.3-2.9l0.6-0.5c0.9,1.1,2.2,2,4,2.7
		c1.7,0.7,3.6,1.1,5.6,1.1c2.1,0,3.8-0.3,5.2-0.9c1.3-0.6,2.3-1.4,3-2.3c0.6-1,1-2.1,1-3.3c0-1.4-0.3-2.5-1-3.3
		c-0.7-0.8-1.5-1.5-2.7-2c-1.1-0.5-2.3-0.9-3.6-1.2c-1.3-0.3-2.6-0.6-3.9-1c-1.3-0.3-2.5-0.8-3.6-1.3c-1.1-0.5-2-1.3-2.7-2.2
		c-0.7-0.9-1-2.2-1-3.7c0-1.3,0.3-2.5,1-3.6c0.7-1.1,1.7-2,3.2-2.7c1.4-0.7,3.3-1,5.5-1c1.5,0,3.1,0.2,4.6,0.7
		c1.5,0.5,2.8,1.1,3.8,1.9l-0.5,0.7c-1.2-0.9-2.4-1.5-3.9-1.9c-1.4-0.4-2.8-0.6-4.1-0.6c-2,0-3.7,0.3-5,0.9
		c-1.3,0.6-2.3,1.4-2.9,2.4c-0.6,1-1,2.1-1,3.3c0,1.4,0.3,2.5,1,3.4c0.7,0.8,1.5,1.5,2.7,2c1.1,0.5,2.3,0.9,3.6,1.2
		c1.3,0.3,2.6,0.6,3.9,1c1.3,0.3,2.5,0.8,3.6,1.3c1.1,0.5,2,1.3,2.7,2.2c0.7,0.9,1,2.1,1,3.6c0,1.3-0.3,2.5-1,3.6
		c-0.7,1.1-1.8,2-3.2,2.7C26.1,132,24.3,132.3,22,132.3z"/>
	<path class="st0" d="M38.8,131.4h18.5v0.8H38v-29h18.7v0.8H38.8V131.4z M38.6,117h16.2v0.8H38.6V117z"/>
	<path class="st0" d="M63.5,132.2v-29h0.7L78,127.3h-0.4l13.8-24.1h0.7v29h-0.8v-27.8h0.3L78,128.1h-0.5l-13.6-23.7h0.4v27.8H63.5z"
		/>
	<path class="st0" d="M97,132.2l13.5-29h0.8l13.5,29h-1l-13.1-28.4h0.4l-13.1,28.4H97z M101.4,123.4l0.4-0.8h18l0.4,0.8H101.4z"/>
	<path class="st0" d="M129.7,132.2v-29h0.7l21.7,28.1h-0.5v-28.1h0.8v29h-0.7l-21.7-28.1h0.5v28.1H129.7z"/>
	<path class="st0" d="M157.4,132.2l13.5-29h0.8l13.5,29h-1l-13.1-28.4h0.4l-13.1,28.4H157.4z M161.9,123.4l0.4-0.8h18l0.4,0.8H161.9
		z"/>
	<path class="st0" d="M198,132.3c-2.1,0-4.1-0.4-6-1.2c-1.9-0.8-3.3-1.8-4.3-2.9l0.6-0.5c0.9,1.1,2.2,2,4,2.7
		c1.7,0.7,3.6,1.1,5.6,1.1c2.1,0,3.8-0.3,5.2-0.9c1.3-0.6,2.3-1.4,3-2.3c0.6-1,1-2.1,1-3.3c0-1.4-0.3-2.5-1-3.3
		c-0.7-0.8-1.5-1.5-2.7-2c-1.1-0.5-2.3-0.9-3.6-1.2c-1.3-0.3-2.6-0.6-3.9-1c-1.3-0.3-2.5-0.8-3.6-1.3c-1.1-0.5-2-1.3-2.7-2.2
		c-0.7-0.9-1-2.2-1-3.7c0-1.3,0.3-2.5,1-3.6c0.7-1.1,1.7-2,3.2-2.7c1.4-0.7,3.3-1,5.5-1c1.5,0,3.1,0.2,4.6,0.7
		c1.5,0.5,2.8,1.1,3.8,1.9l-0.5,0.7c-1.2-0.9-2.4-1.5-3.9-1.9c-1.4-0.4-2.8-0.6-4.1-0.6c-2,0-3.7,0.3-5,0.9
		c-1.3,0.6-2.3,1.4-2.9,2.4c-0.6,1-1,2.1-1,3.3c0,1.4,0.3,2.5,1,3.4c0.7,0.8,1.5,1.5,2.7,2c1.1,0.5,2.3,0.9,3.6,1.2
		c1.3,0.3,2.6,0.6,3.9,1c1.3,0.3,2.5,0.8,3.6,1.3c1.1,0.5,2,1.3,2.7,2.2c0.7,0.9,1,2.1,1,3.6c0,1.3-0.3,2.5-1,3.6
		c-0.7,1.1-1.8,2-3.2,2.7C202.2,132,200.3,132.3,198,132.3z"/>
</g>
</svg>
